<svg width="25" height="25" viewBox="0 0 25 25" fill="none" xmlns="http://www.w3.org/2000/svg">
<path d="M14.436 10.8944C13.7722 10.2328 12.8732 9.86135 11.936 9.86135C10.9988 9.86135 10.0999 10.2328 9.43602 10.8944L5.89435 14.436C5.29434 15.1112 4.97496 15.9901 5.00154 16.8929C5.02811 17.7958 5.39864 18.6544 6.03733 19.293C6.67602 19.9317 7.5346 20.3023 8.43746 20.3288C9.34031 20.3554 10.2192 20.036 10.8944 19.436L11.2069 19.1235M10.8944 14.436C11.5582 15.0976 12.4572 15.469 13.3944 15.469C14.3315 15.469 15.2305 15.0976 15.8944 14.436L19.436 10.8944C20.036 10.2192 20.3554 9.34031 20.3288 8.43746C20.3023 7.5346 19.9317 6.67602 19.293 6.03733C18.6544 5.39864 17.7958 5.02811 16.8929 5.00154C15.9901 4.97496 15.1112 5.29434 14.436 5.89435L13.3944 6.93602" stroke="#545454" stroke-width="1.66667" stroke-linecap="round" stroke-linejoin="round"/>
</svg>
