<svg width="21" height="25" viewBox="0 0 21 25" fill="none" xmlns="http://www.w3.org/2000/svg">
<path d="M4.57143 3C3.15313 3 2 4.20117 2 5.67857V19.0714C2 20.5488 3.15313 21.75 4.57143 21.75H17.4286C18.8469 21.75 20 20.5488 20 19.0714V5.67857C20 4.20117 18.8469 3 17.4286 3H4.57143ZM16.5085 6.51562L12.3379 11.4794L17.2437 18.2344H13.4027L10.3973 14.137L6.95402 18.2344H5.04554L9.50536 12.9233L4.80045 6.51562H8.73795L11.458 10.2614L14.6 6.51562H16.5085ZM14.9897 17.0458L8.16339 7.64146H7.02634L13.929 17.0458H14.9857H14.9897Z" fill="#545454"/>
</svg>
