<svg width="24" height="25" viewBox="0 0 24 25" fill="none" xmlns="http://www.w3.org/2000/svg">
<path d="M18 3C18.5304 3 19.0391 3.21949 19.4142 3.61019C19.7893 4.00089 20 4.5308 20 5.08333V19.6667C20 20.2192 19.7893 20.7491 19.4142 21.1398C19.0391 21.5305 18.5304 21.75 18 21.75H4C3.46957 21.75 2.96086 21.5305 2.58579 21.1398C2.21071 20.7491 2 20.2192 2 19.6667V5.08333C2 4.5308 2.21071 4.00089 2.58579 3.61019C2.96086 3.21949 3.46957 3 4 3H18ZM17.5 19.1458V13.625C17.5 12.7244 17.1565 11.8606 16.5452 11.2238C15.9338 10.5869 15.1046 10.2292 14.24 10.2292C13.39 10.2292 12.4 10.7708 11.92 11.5833V10.4271H9.13V19.1458H11.92V14.0104C11.92 13.2083 12.54 12.5521 13.31 12.5521C13.6813 12.5521 14.0374 12.7057 14.2999 12.9792C14.5625 13.2527 14.71 13.6236 14.71 14.0104V19.1458H17.5ZM5.88 8.79167C6.32556 8.79167 6.75288 8.60729 7.06794 8.2791C7.383 7.95091 7.56 7.5058 7.56 7.04167C7.56 6.07292 6.81 5.28125 5.88 5.28125C5.43178 5.28125 5.00193 5.46672 4.68499 5.79686C4.36805 6.12701 4.19 6.57478 4.19 7.04167C4.19 8.01042 4.95 8.79167 5.88 8.79167ZM7.27 19.1458V10.4271H4.5V19.1458H7.27Z" fill="#545454"/>
</svg>
