<svg width="19" height="19" viewBox="0 0 19 19" fill="none" xmlns="http://www.w3.org/2000/svg">
<g clip-path="url(#clip0_852_204)">
<path d="M9.5 0C4.25333 0 0 4.25333 0 9.5C0 14.747 4.25333 19 9.5 19C14.747 19 19 14.747 19 9.5C19 4.25333 14.747 0 9.5 0ZM9.5 17.8312C4.91655 17.8312 1.1875 14.0835 1.1875 9.49996C1.1875 4.91651 4.91655 1.18746 9.5 1.18746C14.0835 1.18746 17.8125 4.91653 17.8125 9.49996C17.8125 14.0834 14.0835 17.8312 9.5 17.8312ZM13.6562 8.90625H10.0938V5.34375C10.0938 5.016 9.82775 4.75 9.5 4.75C9.17225 4.75 8.90625 5.016 8.90625 5.34375V8.90625H5.34375C5.016 8.90625 4.75 9.17225 4.75 9.5C4.75 9.82775 5.016 10.0938 5.34375 10.0938H8.90625V13.6562C8.90625 13.984 9.17225 14.25 9.5 14.25C9.82775 14.25 10.0938 13.984 10.0938 13.6562V10.0938H13.6562C13.984 10.0938 14.25 9.82775 14.25 9.5C14.25 9.17225 13.984 8.90625 13.6562 8.90625Z" fill="#878787"/>
</g>
<defs>
<clipPath id="clip0_852_204">
<rect width="19" height="19" fill="white"/>
</clipPath>
</defs>
</svg>
