<svg width="19" height="18" viewBox="0 0 19 18" fill="none" xmlns="http://www.w3.org/2000/svg">
<path d="M17.4057 18L11.1057 11.7C10.6057 12.1 10.0307 12.4167 9.38066 12.65C8.73066 12.8833 8.039 13 7.30566 13C5.489 13 3.95166 12.3707 2.69366 11.112C1.43566 9.85333 0.806331 8.316 0.805664 6.5C0.805664 4.68333 1.435 3.146 2.69366 1.888C3.95233 0.63 5.48966 0.000666667 7.30566 0C9.12233 0 10.6597 0.629333 11.9177 1.888C13.1757 3.14667 13.805 4.684 13.8057 6.5C13.8057 7.23333 13.689 7.925 13.4557 8.575C13.2223 9.225 12.9057 9.8 12.5057 10.3L18.8057 16.6L17.4057 18ZM7.30566 11C8.55566 11 9.61833 10.5623 10.4937 9.687C11.369 8.81167 11.8063 7.74933 11.8057 6.5C11.8057 5.25 11.368 4.18733 10.4927 3.312C9.61733 2.43667 8.555 1.99933 7.30566 2C6.05566 2 4.993 2.43767 4.11766 3.313C3.24233 4.18833 2.805 5.25067 2.80566 6.5C2.80566 7.75 3.24333 8.81267 4.11866 9.688C4.994 10.5633 6.05633 11.0007 7.30566 11Z" fill="#878787"/>
</svg>
