<?xml version="1.0" encoding="UTF-8" standalone="no"?>
<!-- Uploaded to: SVG Repo, www.svgrepo.com, Generator: SVG Repo Mixer Tools -->

<svg
   xmlns:dc="http://purl.org/dc/elements/1.1/"
   xmlns:cc="http://creativecommons.org/ns#"
   xmlns:rdf="http://www.w3.org/1999/02/22-rdf-syntax-ns#"
   xmlns:svg="http://www.w3.org/2000/svg"
   xmlns="http://www.w3.org/2000/svg"
   xmlns:sodipodi="http://sodipodi.sourceforge.net/DTD/sodipodi-0.dtd"
   xmlns:inkscape="http://www.inkscape.org/namespaces/inkscape"
   fill="#000000"
   height="800px"
   width="800px"
   version="1.1"
   id="Capa_1"
   viewBox="0 0 186.845 186.845"
   xml:space="preserve"
   inkscape:version="0.48.2 r9819"
   sodipodi:docname="socialmedia.spotify.svg"><metadata
   id="metadata3248"><rdf:RDF><cc:Work
       rdf:about=""><dc:format>image/svg+xml</dc:format><dc:type
         rdf:resource="http://purl.org/dc/dcmitype/StillImage" /></cc:Work></rdf:RDF></metadata><defs
   id="defs3246" /><sodipodi:namedview
   pagecolor="#ffffff"
   bordercolor="#666666"
   borderopacity="1"
   objecttolerance="10"
   gridtolerance="10"
   guidetolerance="10"
   inkscape:pageopacity="0"
   inkscape:pageshadow="2"
   inkscape:window-width="1366"
   inkscape:window-height="705"
   id="namedview3244"
   showgrid="false"
   inkscape:zoom="0.295"
   inkscape:cx="400"
   inkscape:cy="400"
   inkscape:window-x="-8"
   inkscape:window-y="-8"
   inkscape:window-maximized="1"
   inkscape:current-layer="g3234" />
<g
   id="g3234">
	<path
   d="M128.875,120.962c-31.094-14.37-74.616-8.014-76.453-7.737c-4.096,0.619-6.915,4.44-6.296,8.536   c0.619,4.096,4.443,6.912,8.536,6.296c0.406-0.062,40.867-5.982,67.92,6.521c1.018,0.471,2.089,0.694,3.142,0.694   c2.834-0.001,5.546-1.614,6.813-4.355C134.274,127.157,132.635,122.7,128.875,120.962z"
   id="path3236"
   style="fill:#ffffff" />
	<path
   d="M137.614,93.953c-35.313-16.319-84.833-9.087-86.924-8.772c-4.094,0.619-6.911,4.438-6.294,8.532   c0.616,4.095,4.438,6.916,8.531,6.301c0.468-0.071,47.206-6.857,78.394,7.556c1.02,0.471,2.089,0.694,3.142,0.694   c2.834-0.001,5.546-1.614,6.814-4.356C143.014,100.148,141.374,95.691,137.614,93.953z"
   id="path3238"
   style="fill:#ffffff" />
	<path
   d="M143.49,65.736c-39.006-18.027-93.79-10.028-96.103-9.679c-4.094,0.619-6.911,4.438-6.294,8.532s4.44,6.919,8.531,6.3   c0.523-0.079,52.691-7.657,87.573,8.463c1.018,0.471,2.089,0.694,3.142,0.694c2.834,0,5.546-1.614,6.813-4.355   C148.89,71.93,147.25,67.474,143.49,65.736z"
   id="path3240"
   style="fill:#ffffff" />
	<path
   d="M93.423,0.001C41.909,0.001,0,41.909,0,93.42c0,51.514,41.909,93.424,93.423,93.424c51.513,0,93.422-41.91,93.422-93.424   C186.845,41.909,144.936,0.001,93.423,0.001z M93.423,171.844C50.18,171.844,15,136.664,15,93.42   c0-43.241,35.18-78.42,78.423-78.42c43.242,0,78.422,35.179,78.422,78.42C171.845,136.664,136.665,171.844,93.423,171.844z"
   id="path3242"
   style="fill:#ffffff" />
</g>
</svg>