<svg width="15" height="14" viewBox="0 0 15 14" fill="none" xmlns="http://www.w3.org/2000/svg">
<path d="M7.16005 4.59145C5.84496 4.59145 4.77175 5.62372 4.77175 6.88864C4.77175 8.15356 5.84496 9.18583 7.16005 9.18583C8.47513 9.18583 9.54834 8.15356 9.54834 6.88864C9.54834 5.62372 8.47513 4.59145 7.16005 4.59145ZM14.3231 6.88864C14.3231 5.93736 14.3321 4.99471 14.2766 4.04515C14.221 2.94223 13.9594 1.96338 13.1209 1.15686C12.2806 0.348624 11.2648 0.098742 10.1181 0.045319C9.12909 -0.00810405 8.14905 0.000512593 7.16184 0.000512593C6.17284 0.000512593 5.19279 -0.00810405 4.20558 0.045319C3.05891 0.098742 2.04125 0.350347 1.20274 1.15686C0.36245 1.9651 0.102658 2.94223 0.0471163 4.04515C-0.00842546 4.99643 0.000532922 5.93909 0.000532922 6.88864C0.000532922 7.83819 -0.00842546 8.78257 0.0471163 9.73212C0.102658 10.835 0.364242 11.8139 1.20274 12.6204C2.04304 13.4287 3.05891 13.6785 4.20558 13.732C5.19458 13.7854 6.17463 13.7768 7.16184 13.7768C8.15084 13.7768 9.13088 13.7854 10.1181 13.732C11.2648 13.6785 12.2824 13.4269 13.1209 12.6204C13.9612 11.8122 14.221 10.835 14.2766 9.73212C14.3339 8.78257 14.3231 7.83991 14.3231 6.88864ZM7.16005 10.4232C5.1265 10.4232 3.48533 8.84461 3.48533 6.88864C3.48533 4.93267 5.1265 3.3541 7.16005 3.3541C9.19359 3.3541 10.8348 4.93267 10.8348 6.88864C10.8348 8.84461 9.19359 10.4232 7.16005 10.4232ZM10.9853 4.03481C10.5105 4.03481 10.1271 3.66602 10.1271 3.20934C10.1271 2.75266 10.5105 2.38387 10.9853 2.38387C11.4601 2.38387 11.8435 2.75266 11.8435 3.20934C11.8436 3.31778 11.8215 3.42518 11.7784 3.5254C11.7354 3.62561 11.6721 3.71666 11.5924 3.79334C11.5127 3.87002 11.418 3.93082 11.3139 3.97226C11.2097 4.01369 11.098 4.03495 10.9853 4.03481Z" fill="white"/>
</svg>
