<?xml version="1.0" encoding="UTF-8" standalone="no"?>
<!-- Generator: Adobe Illustrator 21.0.0, SVG Export Plug-In . SVG Version: 6.00 Build 0)  -->

<svg
   xmlns:dc="http://purl.org/dc/elements/1.1/"
   xmlns:cc="http://creativecommons.org/ns#"
   xmlns:rdf="http://www.w3.org/1999/02/22-rdf-syntax-ns#"
   xmlns:svg="http://www.w3.org/2000/svg"
   xmlns="http://www.w3.org/2000/svg"
   xmlns:sodipodi="http://sodipodi.sourceforge.net/DTD/sodipodi-0.dtd"
   xmlns:inkscape="http://www.inkscape.org/namespaces/inkscape"
   version="1.1"
   x="0px"
   y="0px"
   viewBox="0 0 256.96198 230.4243"
   xml:space="preserve"
   id="svg3028"
   inkscape:version="0.48.2 r9819"
   width="100%"
   height="100%"
   sodipodi:docname="logo.svg"><metadata
   id="metadata3069"><rdf:RDF><cc:Work
       rdf:about=""><dc:format>image/svg+xml</dc:format><dc:type
         rdf:resource="http://purl.org/dc/dcmitype/StillImage" /></cc:Work></rdf:RDF></metadata><defs
   id="defs3067" /><sodipodi:namedview
   pagecolor="#ffffff"
   bordercolor="#666666"
   borderopacity="1"
   objecttolerance="10"
   gridtolerance="10"
   guidetolerance="10"
   inkscape:pageopacity="0"
   inkscape:pageshadow="2"
   inkscape:window-width="815"
   inkscape:window-height="696"
   id="namedview3065"
   showgrid="false"
   fit-margin-top="0"
   fit-margin-left="0"
   fit-margin-right="0"
   fit-margin-bottom="0"
   inkscape:zoom="0.75665277"
   inkscape:cx="128.48099"
   inkscape:cy="119.44999"
   inkscape:window-x="0"
   inkscape:window-y="0"
   inkscape:window-maximized="0"
   inkscape:current-layer="svg3028" />
<style
   type="text/css"
   id="style3030">
	.st0{fill-rule:evenodd;clip-rule:evenodd;fill:#FFFFFF;}
	.st1{fill:#FFFFFF;}
	.st2{fill-rule:evenodd;clip-rule:evenodd;}
	.st3{clip-path:url(#SVGID_64_);}
	.st4{opacity:0.5;fill:#FFFFFF;}
	.st5{opacity:0.5;}
	.st6{fill:#E63F15;}
	.st7{stroke:#FFFFFF;stroke-miterlimit:10;}
</style>
<g
   id="Layer_5"
   transform="translate(-86.419008,-44.975696)">
	<path
   d="m 340.7,248 c -2.1,-9.9 -2.9,-16.9 -3.5,-40.7 -0.5,-23.8 -0.6,-48.5 -1,-69.6 -0.3,-21.2 -2.7,-52.6 -4,-70.1 -1.3,-17.5 -6.5,-18.7 -6.5,-18.7 0,0 -31.9,-2.8 -32.4,-2.6 C 257,46.1 136.2,45.7 132.9,46 c -4,0.3 -28.9,2.9 -28.9,2.9 0,0 -5.3,1.3 -6.5,18.7 -1.1,17.4 -3.5,48.9 -3.9,70.1 -0.4,21.2 -0.5,45.9 -1,69.6 -0.5,23.7 -1.3,30.7 -3.4,40.7 -2.1,10 5.6,8.7 13.6,10.4 8,1.7 13.1,5.1 13.1,5.1 l 192.5,-1.3 c 0,0 10.8,-2.1 18.8,-3.8 7.9,-1.8 15.6,-0.6 13.5,-10.4 z"
   id="path3033"
   inkscape:connector-curvature="0" />
	<g
   id="g3035">
		<path
   class="st1"
   d="m 153,268 h 4.1 v 1.4 c -1.6,1.8 -3.4,2.6 -5.3,2.6 -0.9,0 -1.7,-0.2 -2.4,-0.5 l -1.9,-1.4 -1.3,-2 c -0.3,-0.8 -0.5,-1.6 -0.5,-2.5 0,-0.9 0.2,-1.7 0.4,-2.4 l 1.2,-2 1.9,-1.4 c 0.7,-0.3 1.5,-0.5 2.3,-0.5 1,0 2.1,0.2 3.1,0.7 0.9,0.5 1.6,1.2 2.2,2.2 l 3,-2 c -0.7,-1.3 -1.7,-2.3 -3.1,-3.1 -1.4,-0.7 -3,-1.1 -4.9,-1.1 -1.4,0 -2.7,0.2 -4,0.7 -1.3,0.5 -2.3,1.2 -3.1,2.1 -0.9,0.9 -1.6,1.9 -2.1,3.1 -0.5,1.1 -0.7,2.3 -0.7,3.7 0,1.4 0.2,2.7 0.7,3.9 0.5,1.2 1.2,2.2 2.1,3.1 0.9,0.9 1.9,1.5 3.1,2.1 1.1,0.5 2.4,0.7 3.8,0.7 2.2,0 4,-0.7 5.6,-2.3 v 2.2 h 3.3 v -9.8 h -7.3 l -0.2,2.5 0,0 z"
   id="path3037"
   inkscape:connector-curvature="0"
   style="fill:#ffffff" />
		<path
   class="st1"
   d="m 175.6,256 -7.7,19 h 4 l 1.9,-4.8 h 7.1 l 1.9,4.8 h 4 l -7.7,-19 h -3.5 z m -1.2,11.6 2.9,-7.5 2.8,7.5 h -5.7 z"
   id="path3039"
   inkscape:connector-curvature="0"
   style="fill:#ffffff" />
		<polygon
   class="st1"
   points="209.4,275 209.4,271.8 198.9,271.8 198.9,256 195,256 195,275 "
   id="polygon3041"
   style="fill:#ffffff" />
		<polygon
   class="st1"
   points="221.8,263.8 221.8,259.3 231.7,259.3 231.7,256 217.8,256 217.8,275 231.9,275 231.9,271.8 221.8,271.8 221.8,266.8 230.3,266.8 230.3,263.8 "
   id="polygon3043"
   style="fill:#ffffff" />
		<path
   class="st1"
   d="m 256.4,265.7 c 0.6,-1 1,-2.1 1,-3.4 l -0.5,-2.3 -1.4,-2 -2,-1.5 c -0.8,-0.3 -1.7,-0.6 -2.6,-0.6 h -9 v 19 h 4 v -6.4 h 3.9 l 4.2,6.4 h 4.4 l -4.7,-7.2 c 1.1,-0.3 2,-1 2.7,-2 z m -3.2,-2.2 -0.6,1 -0.8,0.6 -1,0.2 h -4.9 v -6.1 h 4.8 l 1,0.2 0.9,0.6 0.6,1 0.2,1.2 -0.2,1.3 z"
   id="path3045"
   inkscape:connector-curvature="0"
   style="fill:#ffffff" />
		<rect
   x="267.79999"
   y="256"
   class="st1"
   width="4"
   height="19"
   id="rect3047"
   style="fill:#ffffff" />
		<rect
   x="282.89999"
   y="256"
   class="st1"
   width="4"
   height="19"
   id="rect3049"
   style="fill:#ffffff" />
		<path
   class="st1"
   d="m 343.1,250.4 c -2.1,-9.9 -2.9,-19.4 -3.5,-43.2 -0.5,-23.8 -0.6,-48.5 -1,-69.6 -0.3,-21.2 -2.7,-52.6 -4,-70.1 -1.3,-17.5 -6.5,-21.1 -6.5,-21.1 0,0 -27.3,-1 -31.2,-1.3 -4,-0.3 -4.3,0.9 -4.3,0.9 l 1.5,5 c 0,0 1.1,-2 13.7,-2 12.5,0 18.9,15.1 18.9,15.1 0,0 2.6,36.3 3.5,56.1 1,19.8 0.5,34.1 0.2,44.4 -0.3,10.2 0.5,35.5 1.1,47.5 0.6,12 1.8,18.1 2.3,24 0.5,5.8 0.2,16.8 0.2,16.8 -15.8,6.7 -25.7,6.5 -25.7,6.5 l 0.5,4.1 5.2,1.7 c 0,0 5.1,-2.6 13.1,-4.3 8,-1.9 18.1,-0.7 16,-10.5 z"
   id="path3051"
   inkscape:connector-curvature="0"
   style="fill:#ffffff" />
		<path
   class="st1"
   d="m 315.3,88.9 c -0.1,-7.2 -22.2,-3.1 -29.2,-1 -7,2.2 -24.1,10.3 -26,18 0,0 0.9,16.9 11.1,55.4 0,0 13.8,35.7 4.9,48.6 -8.9,12.7 -23.7,11.3 -28.6,10.3 0,0 0.2,-1.5 -2,-2.2 0,0 -10.2,3.1 -9.8,11.1 0.4,8 29,2.3 39.8,-3.8 10.8,-6.2 14.2,-10.8 15.2,-13.7 0,0 -2.2,-20.4 -10.2,-53.6 0,0 -11.4,-28 -8.1,-42.7 3.2,-14.7 15,-19.8 31.1,-18 0,0 -0.2,1.8 2.3,2.3 0,-0.1 9.6,-3.5 9.5,-10.7 z"
   id="path3053"
   inkscape:connector-curvature="0"
   style="fill:#ffffff" />
		<path
   class="st1"
   d="m 256,190.8 2.3,-11.6 1.3,-41.9 c 0,0 -2.2,-16.9 -2.3,-27.1 -0.1,-10.2 2.7,-25.9 1,-32.3 l -11.7,1.6 3.9,59.4 c 0,0 2.9,41.5 -5.7,50.7 -8.7,9.3 -18.3,8.6 -19.8,0 -1.5,-8.6 7.3,-54.4 7.3,-54.4 l 4.2,-54.4 c 0,0 -9,-5.6 -9.8,-1.3 -0.8,4.3 -4.6,46.4 -4.6,46.4 l -7,45.1 c 0,0 -3.6,-55.3 -2,-71.2 1.6,-15.9 2,-20.2 2,-20.2 0,0 -3.8,-2.8 -9.4,-0.2 l -0.2,5.2 c 0,0 -33.4,58.7 -39.4,78.2 0,0 1.4,-28.2 8,-53 6.6,-24.8 12,-29.4 12,-35.2 0,0 -7.1,-4.1 -15.4,5.1 0,0 0.6,16.4 -4.3,26.9 -4.9,10.6 -6.6,30 -6.6,30 0,0 0,6.4 -2.7,9 l -7.9,-1.8 c 0,0 3.6,-24.8 4.3,-34.4 0.6,-9.6 2.7,-23.3 5.8,-28.5 0,0 1.4,-2 0.7,-3.3 -0.6,-1.3 -2.7,-4.1 -5.1,-2.7 -2.4,1.4 -8.1,8.1 -10.6,18.1 -2.6,10.1 -2.7,17.3 -2.7,27.4 -0.1,10.2 -2.2,20.7 -4.1,22.2 -2,1.5 -4.1,3.3 -4.1,3.3 l -0.5,5.8 c 0,0 3.3,8.4 4.6,15.2 l -13.3,60.4 c 0,0 0.1,1.5 2.7,0.6 2.7,-0.7 13.7,-3 14.4,-13.1 0.7,-10.2 0.3,-30.7 0.3,-30.7 l 6.3,-28 11.4,0.4 -2.4,10.6 c 0,0 -2.4,20 -4.5,33.1 -2.2,13.1 -3.5,22.9 -2.8,25.5 0.6,2.7 5.3,10.4 5.3,10.4 l 10.6,1.5 2.7,-0.4 0.8,-4.4 c 0,0 -4.9,-11.1 -7,-13.5 0,0 4.3,-25.9 8.6,-37.9 0,0 32.7,-2 34,0.7 l -2.1,26.2 c 0,0 0,1.5 1.4,1.5 1.5,0.1 10.6,-0.2 10.6,-1.2 0,-1 -0.4,-13.6 -1.5,-18.1 l 1.1,-7.7 4.4,18.9 c 0,0 5.6,5.5 17.1,6.3 -0.3,0.4 12.1,-4.9 20.4,-17.2 z m -49.9,-21.1 -1.4,2.5 c -4.7,-3.4 -30.9,-1 -30.9,-1 3.2,-9.8 26.6,-58.2 26.6,-58.2 1.4,-2.8 5.6,0 5.6,0 l 0.1,56.7 0,0 z"
   id="path3055"
   inkscape:connector-curvature="0"
   style="fill:#ffffff" />
		<path
   class="st1"
   d="m 103.1,64 c 0,0 6.4,-15.1 18.9,-15.1 12.6,0 13.7,2 13.7,2 l 1.5,-5 c 0,0 -0.3,-1.1 -4.3,-0.9 -4,0.3 -31.3,1.3 -31.3,1.3 0,0 -5.3,3.7 -6.5,21.1 -1.2,17.5 -3.6,49 -4,70.2 -0.4,21.2 -0.5,45.9 -1,69.6 -0.5,23.8 -1.3,33.2 -3.4,43.2 -2.1,10 8,8.7 16,10.4 8,1.7 13.1,4.3 13.1,4.3 l 5.2,-1.7 0.5,-4.1 c 0,0 -9.9,0.2 -25.7,-6.5 0,0 -0.3,-11 0.2,-16.8 0.5,-5.8 1.6,-11.9 2.3,-24 0.6,-12 1.5,-37.3 1.1,-47.5 -0.3,-10.2 -0.8,-24.5 0.2,-44.4 0.9,-19.8 3.5,-56.1 3.5,-56.1 z"
   id="path3057"
   inkscape:connector-curvature="0"
   style="fill:#ffffff" />
	</g>
</g>
<g
   id="taust"
   transform="translate(-86.419008,-44.975696)">
</g>
<g
   id="päis_x2F_jalus"
   transform="translate(-86.419008,-44.975696)">
</g>
<g
   id="reklaam"
   transform="translate(-86.419008,-44.975696)">
</g>
<g
   id="pildid"
   transform="translate(-86.419008,-44.975696)">
</g>
<g
   id="tekst"
   transform="translate(-86.419008,-44.975696)">
</g>
<g
   id="Layer_4"
   transform="translate(-86.419008,-44.975696)">
</g>
</svg>